<mxfile host="app.diagrams.net" modified="2024-01-11T19:34:07.595Z" agent="Mozilla/5.0 (Windows NT 10.0; Win64; x64) AppleWebKit/537.36 (KHTML, like Gecko) Chrome/120.0.0.0 Safari/537.36" etag="7e01FE86ialU7pMwRZDy" version="22.1.18" type="github">
  <diagram name="Page-1" id="jvHXsrBljIZh9Bcvvygx">
    <mxGraphModel dx="880" dy="468" grid="1" gridSize="10" guides="1" tooltips="1" connect="1" arrows="1" fold="1" page="1" pageScale="1" pageWidth="850" pageHeight="1100" math="0" shadow="0">
      <root>
        <mxCell id="0" />
        <mxCell id="1" parent="0" />
        <mxCell id="OGMLSJQyytf993Z_IZep-33" value="" style="rounded=0;whiteSpace=wrap;html=1;" vertex="1" parent="1">
          <mxGeometry x="40" y="30" width="720" height="300" as="geometry" />
        </mxCell>
        <mxCell id="OGMLSJQyytf993Z_IZep-26" value="" style="ellipse;whiteSpace=wrap;html=1;aspect=fixed;fillColor=#d5e8d4;strokeColor=#82b366;" vertex="1" parent="1">
          <mxGeometry x="690" y="202.5" width="30" height="30" as="geometry" />
        </mxCell>
        <mxCell id="OGMLSJQyytf993Z_IZep-3" value="Planejamento" style="html=1;shadow=0;dashed=0;align=center;verticalAlign=middle;shape=mxgraph.arrows2.arrow;dy=0;dx=10;notch=0;fillColor=#d5e8d4;strokeColor=#82b366;gradientColor=#97d077;" vertex="1" parent="1">
          <mxGeometry x="80" y="80" width="120" height="40" as="geometry" />
        </mxCell>
        <mxCell id="OGMLSJQyytf993Z_IZep-4" value="Desenvolvimento" style="html=1;shadow=0;dashed=0;align=center;verticalAlign=middle;shape=mxgraph.arrows2.arrow;dy=0;dx=10;notch=0;fillColor=#d5e8d4;strokeColor=#6A9153;gradientColor=#97d077;strokeWidth=3;" vertex="1" parent="1">
          <mxGeometry x="200" y="80" width="280" height="40" as="geometry" />
        </mxCell>
        <mxCell id="OGMLSJQyytf993Z_IZep-5" value="Testes" style="html=1;shadow=0;dashed=0;align=center;verticalAlign=middle;shape=mxgraph.arrows2.arrow;dy=0;dx=10;notch=0;fillColor=#d5e8d4;strokeColor=#82b366;gradientColor=#97d077;" vertex="1" parent="1">
          <mxGeometry x="480" y="80" width="120" height="40" as="geometry" />
        </mxCell>
        <mxCell id="OGMLSJQyytf993Z_IZep-6" value="Deploy" style="html=1;shadow=0;dashed=0;align=center;verticalAlign=middle;shape=mxgraph.arrows2.arrow;dy=0;dx=10;notch=0;fillColor=#d5e8d4;strokeColor=#82b366;gradientColor=#97d077;" vertex="1" parent="1">
          <mxGeometry x="600" y="80" width="120" height="40" as="geometry" />
        </mxCell>
        <mxCell id="OGMLSJQyytf993Z_IZep-7" value="" style="html=1;shadow=0;dashed=0;align=center;verticalAlign=middle;shape=mxgraph.arrows2.arrow;dy=0;dx=10;notch=10;rotation=90;whiteSpace=wrap;fillColor=#d5e8d4;strokeColor=#82b366;gradientColor=#97d077;" vertex="1" parent="1">
          <mxGeometry x="67.5" y="132.5" width="55" height="70" as="geometry" />
        </mxCell>
        <mxCell id="OGMLSJQyytf993Z_IZep-8" value="&lt;font style=&quot;font-size: 10px;&quot;&gt;Planejamento&lt;br&gt;&amp;nbsp;Inicial&lt;/font&gt;" style="text;html=1;align=center;verticalAlign=middle;resizable=0;points=[];autosize=1;strokeColor=none;fillColor=none;" vertex="1" parent="1">
          <mxGeometry x="55" y="147.5" width="80" height="40" as="geometry" />
        </mxCell>
        <mxCell id="OGMLSJQyytf993Z_IZep-11" style="edgeStyle=orthogonalEdgeStyle;rounded=0;orthogonalLoop=1;jettySize=auto;html=1;exitX=1;exitY=0.5;exitDx=0;exitDy=0;entryX=0;entryY=0.5;entryDx=0;entryDy=0;endArrow=none;endFill=0;flowAnimation=1;strokeWidth=2;fillColor=#d5e8d4;strokeColor=#82b366;" edge="1" parent="1" source="OGMLSJQyytf993Z_IZep-9" target="OGMLSJQyytf993Z_IZep-10">
          <mxGeometry relative="1" as="geometry" />
        </mxCell>
        <mxCell id="OGMLSJQyytf993Z_IZep-9" value="" style="ellipse;whiteSpace=wrap;html=1;aspect=fixed;fillColor=#d5e8d4;strokeColor=#82b366;" vertex="1" parent="1">
          <mxGeometry x="80" y="202.5" width="30" height="30" as="geometry" />
        </mxCell>
        <mxCell id="OGMLSJQyytf993Z_IZep-15" style="edgeStyle=orthogonalEdgeStyle;rounded=0;orthogonalLoop=1;jettySize=auto;html=1;exitX=1;exitY=0.5;exitDx=0;exitDy=0;endArrow=none;endFill=0;flowAnimation=1;strokeWidth=2;fillColor=#d5e8d4;strokeColor=#82b366;" edge="1" parent="1" source="OGMLSJQyytf993Z_IZep-10" target="OGMLSJQyytf993Z_IZep-12">
          <mxGeometry relative="1" as="geometry" />
        </mxCell>
        <mxCell id="OGMLSJQyytf993Z_IZep-10" value="MVP" style="ellipse;whiteSpace=wrap;html=1;aspect=fixed;fillColor=#d5e8d4;strokeColor=#82b366;" vertex="1" parent="1">
          <mxGeometry x="177.5" y="202.5" width="30" height="30" as="geometry" />
        </mxCell>
        <mxCell id="OGMLSJQyytf993Z_IZep-16" style="edgeStyle=orthogonalEdgeStyle;rounded=0;orthogonalLoop=1;jettySize=auto;html=1;exitX=1;exitY=0.5;exitDx=0;exitDy=0;entryX=0;entryY=0.5;entryDx=0;entryDy=0;endArrow=none;endFill=0;flowAnimation=1;strokeWidth=2;fillColor=#d5e8d4;strokeColor=#82b366;" edge="1" parent="1" source="OGMLSJQyytf993Z_IZep-12" target="OGMLSJQyytf993Z_IZep-13">
          <mxGeometry relative="1" as="geometry" />
        </mxCell>
        <mxCell id="OGMLSJQyytf993Z_IZep-12" value="V.01" style="ellipse;whiteSpace=wrap;html=1;aspect=fixed;fillColor=#d5e8d4;strokeColor=#82b366;" vertex="1" parent="1">
          <mxGeometry x="280" y="202.5" width="30" height="30" as="geometry" />
        </mxCell>
        <mxCell id="OGMLSJQyytf993Z_IZep-17" style="edgeStyle=orthogonalEdgeStyle;rounded=0;orthogonalLoop=1;jettySize=auto;html=1;exitX=1;exitY=0.5;exitDx=0;exitDy=0;entryX=0;entryY=0.5;entryDx=0;entryDy=0;endArrow=none;endFill=0;flowAnimation=1;strokeWidth=2;fillColor=#d5e8d4;strokeColor=#82b366;" edge="1" parent="1" source="OGMLSJQyytf993Z_IZep-13" target="OGMLSJQyytf993Z_IZep-14">
          <mxGeometry relative="1" as="geometry" />
        </mxCell>
        <mxCell id="OGMLSJQyytf993Z_IZep-13" value="V.02" style="ellipse;whiteSpace=wrap;html=1;aspect=fixed;fillColor=#d5e8d4;strokeColor=#82b366;" vertex="1" parent="1">
          <mxGeometry x="370" y="202.5" width="30" height="30" as="geometry" />
        </mxCell>
        <mxCell id="OGMLSJQyytf993Z_IZep-22" style="edgeStyle=orthogonalEdgeStyle;rounded=0;orthogonalLoop=1;jettySize=auto;html=1;exitX=1;exitY=0.5;exitDx=0;exitDy=0;entryX=0;entryY=0.5;entryDx=0;entryDy=0;endArrow=none;endFill=0;flowAnimation=1;strokeWidth=2;fillColor=#d5e8d4;strokeColor=#82b366;" edge="1" parent="1" source="OGMLSJQyytf993Z_IZep-14" target="OGMLSJQyytf993Z_IZep-21">
          <mxGeometry relative="1" as="geometry" />
        </mxCell>
        <mxCell id="OGMLSJQyytf993Z_IZep-14" value="V.03" style="ellipse;whiteSpace=wrap;html=1;aspect=fixed;fillColor=#d5e8d4;strokeColor=#82b366;" vertex="1" parent="1">
          <mxGeometry x="450" y="202.5" width="30" height="30" as="geometry" />
        </mxCell>
        <mxCell id="OGMLSJQyytf993Z_IZep-18" value="Alinhamentos e &lt;br&gt;checkpoints semanais" style="text;html=1;align=center;verticalAlign=middle;resizable=0;points=[];autosize=1;labelBorderColor=default;" vertex="1" parent="1">
          <mxGeometry x="315" y="140" width="140" height="40" as="geometry" />
        </mxCell>
        <mxCell id="OGMLSJQyytf993Z_IZep-27" style="edgeStyle=orthogonalEdgeStyle;rounded=0;orthogonalLoop=1;jettySize=auto;html=1;exitX=1;exitY=0.5;exitDx=0;exitDy=0;entryX=0;entryY=0.5;entryDx=0;entryDy=0;endArrow=none;endFill=0;flowAnimation=1;strokeWidth=2;fillColor=#d5e8d4;strokeColor=#82b366;" edge="1" parent="1" source="OGMLSJQyytf993Z_IZep-21" target="OGMLSJQyytf993Z_IZep-26">
          <mxGeometry relative="1" as="geometry">
            <mxPoint x="600" y="230" as="targetPoint" />
          </mxGeometry>
        </mxCell>
        <mxCell id="OGMLSJQyytf993Z_IZep-21" value="" style="ellipse;whiteSpace=wrap;html=1;aspect=fixed;fillColor=#d5e8d4;strokeColor=#82b366;" vertex="1" parent="1">
          <mxGeometry x="570" y="202.5" width="30" height="30" as="geometry" />
        </mxCell>
        <mxCell id="OGMLSJQyytf993Z_IZep-24" value="" style="verticalLabelPosition=bottom;verticalAlign=top;html=1;shape=mxgraph.basic.star;fillColor=#d5e8d4;strokeColor=#82b366;gradientColor=#97d077;" vertex="1" parent="1">
          <mxGeometry x="690" y="202.5" width="30" height="27.5" as="geometry" />
        </mxCell>
        <mxCell id="OGMLSJQyytf993Z_IZep-28" value="&amp;nbsp; &amp;nbsp;2 MESES&amp;nbsp; &amp;nbsp;" style="endArrow=baseDash;startArrow=baseDash;html=1;rounded=0;startFill=0;endFill=0;" edge="1" parent="1">
          <mxGeometry width="50" height="50" relative="1" as="geometry">
            <mxPoint x="80" y="262.5" as="sourcePoint" />
            <mxPoint x="720" y="263" as="targetPoint" />
            <mxPoint as="offset" />
          </mxGeometry>
        </mxCell>
        <mxCell id="OGMLSJQyytf993Z_IZep-29" value="&amp;nbsp; &amp;nbsp;1 SEMANA&amp;nbsp; &amp;nbsp;" style="endArrow=baseDash;startArrow=baseDash;html=1;rounded=0;startFill=0;endFill=0;" edge="1" parent="1">
          <mxGeometry width="50" height="50" relative="1" as="geometry">
            <mxPoint x="80" y="290" as="sourcePoint" />
            <mxPoint x="190" y="290.5" as="targetPoint" />
          </mxGeometry>
        </mxCell>
        <mxCell id="OGMLSJQyytf993Z_IZep-30" value="1 MÃŠS E 1 SEMANA" style="endArrow=baseDash;startArrow=baseDash;html=1;rounded=0;startFill=0;endFill=0;" edge="1" parent="1">
          <mxGeometry width="50" height="50" relative="1" as="geometry">
            <mxPoint x="200" y="290" as="sourcePoint" />
            <mxPoint x="480" y="290" as="targetPoint" />
          </mxGeometry>
        </mxCell>
        <mxCell id="OGMLSJQyytf993Z_IZep-31" value="&amp;nbsp; &amp;nbsp;1 SEMANA&amp;nbsp; &amp;nbsp;" style="endArrow=baseDash;startArrow=baseDash;html=1;rounded=0;startFill=0;endFill=0;" edge="1" parent="1">
          <mxGeometry width="50" height="50" relative="1" as="geometry">
            <mxPoint x="490" y="290" as="sourcePoint" />
            <mxPoint x="600" y="291" as="targetPoint" />
          </mxGeometry>
        </mxCell>
        <mxCell id="OGMLSJQyytf993Z_IZep-32" value="&amp;nbsp; &amp;nbsp;1 SEMANA&amp;nbsp; &amp;nbsp;" style="endArrow=baseDash;startArrow=baseDash;html=1;rounded=0;startFill=0;endFill=0;" edge="1" parent="1">
          <mxGeometry width="50" height="50" relative="1" as="geometry">
            <mxPoint x="610" y="290" as="sourcePoint" />
            <mxPoint x="720" y="291" as="targetPoint" />
          </mxGeometry>
        </mxCell>
        <mxCell id="OGMLSJQyytf993Z_IZep-35" value="Testes de Stresse &lt;br&gt;e Disponibilidade" style="text;html=1;align=center;verticalAlign=middle;resizable=0;points=[];autosize=1;labelBorderColor=default;" vertex="1" parent="1">
          <mxGeometry x="480" y="140" width="120" height="40" as="geometry" />
        </mxCell>
        <mxCell id="OGMLSJQyytf993Z_IZep-36" value="AutomatizaÃ§Ã£o de &lt;br&gt;esteira de deploy" style="text;html=1;align=center;verticalAlign=middle;resizable=0;points=[];autosize=1;labelBorderColor=default;" vertex="1" parent="1">
          <mxGeometry x="600" y="140" width="120" height="40" as="geometry" />
        </mxCell>
        <mxCell id="OGMLSJQyytf993Z_IZep-38" value="Development Timeline" style="text;html=1;align=center;verticalAlign=middle;resizable=0;points=[];autosize=1;strokeColor=none;fillColor=none;fontSize=14;fontStyle=1" vertex="1" parent="1">
          <mxGeometry x="315" y="40" width="170" height="30" as="geometry" />
        </mxCell>
      </root>
    </mxGraphModel>
  </diagram>
</mxfile>
